<svg width="512" height="149" viewBox="0 0 512 149" fill="none" xmlns="http://www.w3.org/2000/svg">
<path fill-rule="evenodd" clip-rule="evenodd" d="M255.507 106.261C263.432 89.5732 281.456 76.3956 294.363 76.3956C296.186 76.3956 297.914 76.5727 299.537 76.911C300.635 75.5999 302.1 74.4092 303.959 73.4379H303.976C308.452 78.2622 316.331 81.5009 327.134 81.5009C334.781 81.5009 342.28 80.245 351.15 77.9153C352.804 78.5088 354.533 79.1741 356.194 79.8135C358.002 80.5095 359.73 81.1747 361.193 81.6823C348.657 98.9473 344.329 109.058 344.329 114.147C344.329 116.906 346.261 118.591 347.913 118.591C354.949 118.591 369.777 103.59 385.882 80.493H401.86C390.809 96.3366 385.656 109.223 385.656 115.997C385.656 119.599 387.754 121.846 390.743 121.846C403.551 121.846 428.065 93.28 437.254 77.6336H418.281L426.56 62.2216H446.701C446.701 62.2216 451.755 53.5478 458.887 41.0727H470.75L460.249 62.2216H481L472.757 77.6336H452.651C444.874 93.5832 429.821 123.68 460.019 123.68C477.197 123.68 489.173 120.045 512 111.553C511.545 113.649 510.748 116.346 509.979 118.951C509.324 121.173 508.688 123.327 508.3 124.985C490.989 135.311 466.362 144.662 447.085 144.662C434.598 144.662 419.038 139.276 423.514 115.105C403.561 137.806 390.958 142.712 380.849 142.712C370.74 142.712 365.587 135.295 366.793 123.482C356.056 135.245 344.51 142.679 333.526 142.679C326.258 142.679 320.791 136.467 320.791 129.941C320.791 122.16 325.829 107.488 337.011 92.2062C328.839 94.5796 321.715 95.6714 314.697 95.7961C314.661 116.868 294.111 143.175 270.066 143.175C259.801 143.175 251.846 135.596 251.51 123.657C190.665 174.586 162.769 118.33 213.602 86.5224C205.539 86.8091 194.966 87.6693 182.386 89.5331C183.497 92.5094 184.189 96.0907 184.189 99.5746C184.189 128.272 137.807 148.66 84.8683 148.66C27.6672 148.66 0 131.56 0 127.033C0 116.161 62.3787 93.1553 140.831 81.6027C134.153 76.3282 124.451 72.268 114.584 68.1394C95.6903 60.2329 76.1959 52.0751 76.1959 34.662C76.1959 13.3659 127.748 0 170.099 0C191.391 0 206.091 0.802723 220.197 3.29746L215.06 16.1084C207.776 15.398 200.607 14.7702 192.596 14.7702C153.896 14.7702 112.452 26.0708 112.452 38.2967C112.452 45.4546 124.28 50.684 138.331 56.8961C150.686 62.3589 164.76 68.5817 174.021 77.544C192.763 75.7268 212.012 74.6766 231.215 74.6766C241.306 74.6766 249.814 74.9741 257.081 76.9074L252.523 88.3897C250.804 86.4894 248.212 85.4321 244.297 85.4321C232.701 85.4321 214.961 98.3516 214.961 111.024C214.961 116.592 218.463 120.903 225.153 120.903C232.521 120.903 246.453 114.093 255.507 106.261ZM149.378 95.0886C98.379 104.802 40.3197 120.903 40.3197 126.661C40.3197 129.238 50.2422 132.402 63.7701 132.402C101.843 132.402 149.584 121.416 149.584 97.2613C149.584 96.9545 149.522 95.9488 149.378 95.0886ZM297.12 85.5668C297.651 88.5051 299.472 91.341 302.722 93.28C301.019 101.853 289.457 120.342 279.828 120.342C276.855 120.342 273.914 118.095 273.914 114.23C273.914 103.959 288.954 86.4564 297.12 85.5668Z" fill="#11232F"/>
</svg>
